<?xml version="1.0" encoding="UTF-8" standalone="no"?>
<!DOCTYPE svg PUBLIC "-//W3C//DTD SVG 1.1//EN" "http://www.w3.org/Graphics/SVG/1.1/DTD/svg11.dtd">
<svg width="100%" height="100%" viewBox="0 0 166 136" version="1.1" xmlns="http://www.w3.org/2000/svg" xmlns:xlink="http://www.w3.org/1999/xlink" xml:space="preserve" xmlns:serif="http://www.serif.com/" style="fill-rule:evenodd;clip-rule:evenodd;stroke-linejoin:round;stroke-miterlimit:2;">
    <path id="PlainHearth" d="M82.694,29.832L86.011,26.515C93.043,19.483 102.581,15.532 112.526,15.532C122.471,15.532 132.009,19.483 139.041,26.515C139.042,26.516 139.043,26.517 139.044,26.518C146.076,33.55 150.027,43.088 150.027,53.033C150.027,62.978 146.076,72.516 139.044,79.548L135.727,82.865L135.744,82.882L82.711,135.915C82.711,135.915 50.708,103.913 26.516,79.721C11.872,65.076 11.872,41.333 26.516,26.688C26.516,26.688 26.517,26.688 26.517,26.688C41.161,12.043 64.905,12.043 79.55,26.688L82.694,29.832Z"/>
    <path id="EmptyHearth" d="M82.694,29.832L86.011,26.515C93.043,19.483 102.581,15.532 112.526,15.532C122.471,15.532 132.009,19.483 139.041,26.515C139.042,26.516 139.043,26.517 139.044,26.518C146.076,33.55 150.027,43.088 150.027,53.033C150.027,62.978 146.076,72.516 139.044,79.548L135.727,82.865L135.744,82.882L82.711,135.915C82.711,135.915 50.708,103.913 26.516,79.721C11.872,65.076 11.872,41.333 26.516,26.688C26.516,26.688 26.517,26.688 26.517,26.688C41.161,12.043 64.905,12.043 79.55,26.688L82.694,29.832ZM82.702,33.517L85.699,30.52C92.051,24.167 100.667,20.599 109.651,20.599C118.635,20.599 127.251,24.168 133.604,30.52C133.605,30.521 133.605,30.522 133.606,30.523C139.959,36.875 143.528,45.491 143.528,54.475C143.528,63.459 139.959,72.075 133.606,78.428L130.61,81.424L130.625,81.44L82.717,129.347C82.717,129.347 53.807,100.437 31.953,78.583C25.6,72.23 22.031,63.614 22.031,54.63C22.031,45.646 25.6,37.03 31.953,30.678C31.953,30.677 31.954,30.676 31.955,30.675C38.308,24.322 46.924,20.753 55.908,20.753C64.892,20.753 73.508,24.322 79.86,30.675L82.702,33.517Z"/>
</svg>
